<svg xmlns="http://www.w3.org/2000/svg" xmlns:xlink="http://www.w3.org/1999/xlink" version="1.1" x="0px" y="0px" viewBox="0 0 1024 1280" style="enable-background:new 0 0 1024 1024;" xml:space="preserve"><path d="M856,874.6V249.3c0-1.1,0-2.1-0.1-3.1c-1.5-23.4-15.1-45.8-36.9-55.6c-11.8-5.4-23.7-6.6-36.3-6.6h-80  c0-10,0-21.3-0.2-31.9c0-0.6,0-1.1,0-1.7c-0.3-6.8-2.7-13.1-7.5-18c-3.3-3.3-6.9-5.3-10.8-6.3c-0.6-0.2-1.2-0.3-1.8-0.4  c0,0,0,0.1,0,0.1c0,0.1,0-0.1,0-0.1c-1.2-0.2-2.5-0.6-3.7-0.6h0c-0.1,0-0.2,0-0.2-0.1c0-0.1-0.1-0.2-0.1-0.3  c-0.4-0.4-0.9,0.4-1.3-0.6h-84.5c-0.2-5-0.7-11.2-1.8-17c-4.7-23.6-22-45-43.8-54.9c-23.1-10.4-48.8-10-71.4,1.5  c-19.1,9.7-33.7,27.8-39.6,48.2c-2.1,7.3-2.9,15.2-3.1,22.2h-53.5c-10.1,0-20.4,0.1-30.5,0.4c-14.8,0.5-25.9,11.7-26.3,26.4  c-0.1,3.3-0.3,6.9-0.3,10.3v23.1c-29,0-58.2-0.1-87.4,0c-36.2,0.2-65.3,29-65.8,65.3c-0.1,4.8,0.2,9.5,0.2,14.3v616.8  c0,21.8-2.6,45.9,8.2,65.7c12.1,22.1,35.5,33.7,60,33.7h531c7.1,0,14.3-0.3,21.4-0.3c30.8-0.1,59.8-21.5,65.2-52.7  C857.7,910.1,856,891.7,856,874.6z M484.2,121.9c0-0.5,0.1-0.9,0.1-1.4c0.1-0.9,0.2-1.8,0.4-2.7c0.1-0.4,0.2-0.8,0.3-1.2  c0-0.1,0.1-0.2,0.1-0.3c0.1-0.2-0.1-0.4-0.1-0.7c0.1-0.3,0-0.6,0-0.9v0c0,0,0.3,0,0.3,0c0-0.1,0.2-0.2,0.2-0.3  c0-0.1,0.1-0.1,0.1-0.2c0,0,0,0,0,0c0.1-0.2,0.1-0.4,0.2-0.5c0.1-0.3,0.2-0.5,0.3-0.8c0-0.1,0-0.1,0.1-0.1c0-0.1-0.2-0.1-0.2-0.2  c0.1-0.2-0.1-0.3-0.1-0.4v0c0-0.1,0.3-0.1,0.3-0.1c0.1-0.1,0.2-0.2,0.3-0.4c0-0.1,0.1-0.1,0.2-0.2c0,0,0-0.1,0.1-0.1  c0-0.1,0.1-0.1,0.1-0.1c0.1-0.1,0.1-0.3,0.2-0.4c0,0,0-0.1,0.1-0.1c0.1-0.1,0.1-0.3,0.2-0.4c0.1-0.1,0.1-0.2,0.2-0.3  c0.1-0.2,0.3-0.5,0.4-0.7c0,0,0,0,0,0c0.1-0.2,0.2-0.4,0.3-0.6c0.2-0.3,0.4-0.6,0.6-0.9c0.2-0.4,0.5-0.8,0.8-1.1  c0.3-0.3,0.5-0.7,0.8-1c0,0,0,0,0.1-0.1c0.3-0.3,0.5-0.7,0.8-1c0.3-0.4,0.7-0.7,1-1.1c3.2-3.2,6.9-5.3,11-6.7  c0.2-0.1,0.3-0.1,0.5-0.2c0.2,0,0.3-0.1,0.5-0.1c0,0,0.1,0,0.1,0c0.7-0.2,1.5-0.3,2.2-0.5c0.2,0,0.3,0.2,0.5,0.1  c1.6-0.4,3.3-0.2,5-0.2h0c1.5,0,3-0.1,4.3,0.2c0.4,0.1,0.8-0.2,1.1-0.2h0c0.1,0,0.3,0.2,0.4,0.3c0.2,0.1,0.4-0.3,0.6,0.7  c0,0,0,0,0,0c1.8,0,3.5,0.7,5.2,1.4c0.2,0.1,0.4,0.1,0.6,0.1c2.9,1.3,5.6,3,7.8,5.3c0.2,0.2,0.5,0.5,0.7,0.7  c0.4,0.4,0.7,0.8,1.1,1.2c2.8,3.4,4.6,7.3,5.6,11.6c0.2,0.6,0.4,1.2,0.5,1.9c0.1,0.5,0.2,1,0.3,1.6c0,0.1,0.3,0.2,0.3,0.3  c0,0.2,0.3,0.3,0.3,0.5v0.1c0,0.2,0,0.5,0,0.8c0,0.3,0,0.6,0,0.9v0.1c0,0.3-0.2,0.6-0.2,0.9c0,0.3-0.1,0.5-0.1,0.8  c0,0.3-0.1,0.5-0.1,0.8c0,0.1-0.1,0.2-0.1,0.2c0,0.1,0,0.2,0,0.2c0,0.2-0.1,0.4-0.1,0.6c-0.1,0.5-0.2,0.9-0.3,1.4  c-0.1,0.2-0.1,0.4-0.2,0.6c-0.1,0.5-0.3,0.9-0.4,1.3c-0.1,0.4-0.2,0.7-0.3,1.1c-0.1,0.2-0.1,0.5-0.2,0.7c0,0.1,0,0.2-0.1,0.3  c0,0.1,0.1,0.2,0,0.3c0,0.1,0,0.3,0,0.4v0c0,0.3-0.4,0.6-0.5,0.8c0,0.1-0.1,0.2-0.2,0.2c-0.1,0.2-0.2,0.4-0.3,0.6  c-0.2,0.4-0.4,0.9-0.6,1.3c-0.2,0.4-0.4,0.8-0.7,1.2c-0.1,0.2-0.2,0.3-0.3,0.5c-0.3,0.6-0.7,1.1-1.1,1.7c-0.1,0.2-0.3,0.4-0.5,0.6  c-0.5,0.7-1.2,1.3-1.8,1.9c-0.4,0.5-0.4,1-1.4,1.5c0,0,0.2,0,0.2,0v0c0,0.4-0.7,0.7-1.1,1.1c-0.4,0.3-0.7,0.6-1.1,0.9  c0,0-0.1,0.1-0.1,0.1c-0.4,0.3-0.8,0.6-1.3,0.9c-0.1,0.1-0.3,0.2-0.4,0.3c-0.2,0.2-0.5,0.3-0.7,0.5l0,0c-0.8,0.5-1.7,1-2.6,1.4  c-0.2,0.1-0.4,0.2-0.7,0.3c-0.2,0.1-0.4,0.2-0.7,0.3c0,0-0.1,0-0.1,0c0,0,0,0-0.1,0c-0.1,0-0.2,0.1-0.3,0.1c-0.1,0-0.2,0.1-0.3,0.1  c-0.2,0.1-0.5,0.2-0.7,0.3c-0.2,0.1-0.5,0.2-0.8,0.3c-0.2,0.1-0.4,0.1-0.6,0.2c-2.6,0.9-5.5,1.3-8.4,1.2c-0.2,0-0.5,0-0.7,0  c-0.2,0-0.4,0-0.6,0c-0.1,0-0.3,0-0.4,0c-0.2,0-0.4,0-0.6-0.1c-0.1,0-0.2,0-0.3,0c0,0,0,0-0.1,0c-0.1,0-0.3,0-0.4-0.1  c-0.2,0-0.3,0-0.5-0.1c-0.3,0-0.5-0.1-0.8-0.1c-0.2,0-0.4-0.1-0.5-0.1c-1-0.2-2-0.4-2.9-0.7c-0.3-0.1-0.5-0.4-0.8-0.5  c-0.4-0.1-0.7-0.6-1.1-0.6c0,0,0,0,0,0c0,0-0.1,0.2-0.1,0.2c-0.1,0-0.2,0.1-0.3,0.1c0,0,0,0.1,0,0.1c0,0,0,0-0.1,0  c-0.1-0.1-0.2-0.1-0.4-0.1c-0.1,0-0.1-0.1-0.2-0.1c-0.1,0-0.1-0.1-0.2-0.1c0,0,0,0,0,0c-0.1,0-0.2-0.1-0.3-0.1  c-0.2-0.1-0.3-0.1-0.5-0.2c-0.2-0.1-0.4-0.2-0.5-0.3c0,0,0,0,0,0c-0.1-0.1-0.2-0.1-0.4-0.2c-0.1-0.1-0.2-0.1-0.4-0.2  c-0.2-0.1-0.3-0.2-0.5-0.3c-0.1-0.1-0.2-0.1-0.3-0.2c-0.2-0.1-0.4-0.2-0.5-0.3c-0.1-0.1-0.2-0.1-0.3-0.2c-0.1,0-0.2-0.1-0.2-0.1  c-0.1,0-0.1-0.1-0.2-0.1c0,0-0.1-0.1-0.1-0.1c0,0-0.1,0-0.1-0.1c-0.2-0.1-0.3-0.2-0.5-0.3c-0.1-0.1-0.2-0.1-0.3-0.2  c-0.6-0.4-1.3-0.9-1.9-1.4c-0.4-0.3-0.7-0.6-1-0.9c-0.1-0.1-0.3-0.3-0.4-0.4c-0.1-0.1-0.3-0.2-0.4-0.4l-0.2-0.2  c-0.1-0.1-0.2-0.2-0.2-0.2c-0.2-0.2-0.3-0.3-0.5-0.5c0,0-0.1-0.1-0.1-0.1c0,0-0.1-0.1-0.1-0.1c0,0,0,0-0.1-0.1c0,0-0.1-0.1-0.1-0.1  c-0.1-0.1-0.2-0.2-0.3-0.3c-0.1-0.2-0.3-0.3-0.4-0.5c-0.3-0.3-0.6-0.7-0.8-1.1c-0.2-0.3-0.5-0.6-0.7-0.9c-0.6-0.8-1.1-1.6-1.5-2.5  c-0.2-0.3-0.4-0.7-0.5-1c-0.1-0.1-0.2-0.3-0.2-0.5c-0.1-0.3-0.3-0.5-0.4-0.8c-0.2-0.4-0.3-0.8-0.5-1.2c-0.1-0.1-0.1-0.3-0.2-0.4  c-0.1-0.4-0.3-0.7-0.4-1.1c-0.1-0.2-0.2-0.5-0.2-0.7c0-0.1-0.1-0.2-0.1-0.4c-0.1-0.2-0.1-0.4-0.1-0.6c-0.1-0.2-0.1-0.4-0.1-0.6  c-0.1-0.2-0.1-0.5-0.2-0.7c-0.1-0.3-0.1-0.6-0.2-0.9c-0.1-0.5-0.1-0.9-0.2-1.4c0,0,0-0.1,0-0.1c0,0,0-0.1,0-0.1  c0-0.1-0.1-0.2-0.1-0.3c0-0.4-0.2-0.7-0.2-1.1c0,0,0,0,0,0c0-0.5,0.1-0.9,0.1-1.4C484.1,122.8,484.2,122.3,484.2,121.9z M391.1,792  h-90.9c-17.3,0-30.2-13.8-30.9-30.5c-0.8-16.7,14.8-30.5,30.9-30.5h90.9c17.3,0,30.2,13.8,30.9,30.5  C422.8,778.2,407.3,792,391.1,792z M736.5,733.3c-5.3,5.3-10.5,10.5-15.8,15.8c-22.5,22.6-45.1,45.1-67.6,67.7  c-14.2,14.2-28.4,28.4-42.6,42.6c-11.8,11.8-31.9,11.8-43.7,0c-19.3-19.3-38.6-38.6-58-57.9c-12.2-12.2-11.3-31.3,0-43.7  c11.3-12.3,32.3-11.3,43.7,0.1c12,12,24,24,36.1,36.1c20.5-20.6,41.1-41.3,61.6-61.8c14.2-14.2,28.4-28.4,42.6-42.6  c12.2-12.2,31.4-11.3,43.7,0C748.8,700.8,748,721.8,736.5,733.3z M724.8,604.6c-0.2,0-0.5,0.2-0.7,0.2c-17.2,0.4-34.5,0.3-51.8,0.3  H300.2c-17.3,0-30.2-14.4-30.9-31.1c-0.8-16.7,14.8-31.1,30.9-31.1c0.2,0,0.5,0.1,0.7,0.1c17.2-0.4,34.5,0.1,51.8,0.1h372.2  c17.3,0,30.2,14,30.9,30.8C756.5,590.5,741,604.6,724.8,604.6z M724.8,416.2c-0.2,0-0.5-0.1-0.7-0.1c-17.2,0.3-34.5-0.1-51.8-0.1  H300.2c-17.3,0-30.2-14.1-30.9-30.8c-0.8-16.7,14.8-30.9,30.9-30.9c0.2,0,0.5-0.1,0.7-0.1c17.2-0.4,34.5-0.2,51.8-0.2h372.2  c17.3,0,30.2,14.3,30.9,31.1C756.5,401.8,741,416.2,724.8,416.2z"/><text x="0" y="1039" fill="#000000" font-size="5px" font-weight="bold" font-family="'Helvetica Neue', Helvetica, Arial-Unicode, Arial, Sans-serif">Created by shashank singh</text><text x="0" y="1044" fill="#000000" font-size="5px" font-weight="bold" font-family="'Helvetica Neue', Helvetica, Arial-Unicode, Arial, Sans-serif">from the Noun Project</text></svg>